# Blender 4.4.0
# www.blender.org
mtllib homeTEST.mtl
o Cube
v -3.042922 5.714175 3.957404
v -2.768407 0.213633 3.988127
v -3.063611 5.673502 -3.756834
v -2.768407 0.213633 -3.810669
v 4.755874 5.714175 3.957404
v 5.030388 0.213633 3.988127
v 4.755874 5.714175 -3.841392
v 5.030388 0.213633 -3.810669
v 5.030388 0.213633 0.053599
v -2.770131 7.986460 -0.037374
v 5.037757 7.903729 0.134383
v -2.764311 0.261422 0.050918
v -3.040763 6.120199 3.956846
v -3.064588 6.073488 -3.746234
v 4.758032 6.120199 3.956846
v 4.758032 6.120199 -3.841950
v -2.767972 8.392484 -0.037931
v 5.039916 8.309754 0.133826
v -2.768084 7.986394 -0.074366
v -3.057585 5.681348 -3.811251
v 5.039804 7.903665 0.097391
v 4.757921 5.714110 3.920412
v -3.040875 5.714110 3.920412
v 4.757921 5.714110 -3.878384
v -2.765925 8.392419 -0.074924
v -3.057790 6.082738 -3.802313
v 5.041963 8.309689 0.096833
v 4.760079 6.120134 3.919854
v -3.038716 6.120134 3.919854
v 4.760079 6.120134 -3.878942
v -2.770194 8.381357 -0.042325
v -3.066975 6.062037 -3.749964
v 4.755811 6.109073 -3.846344
v 5.037694 8.298627 0.129432
v -2.770305 7.975267 -0.078760
v -3.059033 5.671737 -3.818751
v 5.037583 7.892538 0.092997
v 4.755700 5.702983 3.916018
v -3.043096 5.702983 3.916018
v 4.755700 5.702983 -3.882778
v -2.768147 8.381291 -0.079317
v -3.060124 6.071390 -3.806255
v 5.039742 8.298562 0.092439
v 4.757858 6.109007 3.915460
v -3.040937 6.109007 3.915460
v 4.757858 6.109007 -3.883336
v -3.162505 8.577582 0.013425
v -3.469808 6.052451 -4.174193
v 5.165642 6.063111 -4.196037
v 5.477570 8.486035 0.203488
v -3.162629 8.128210 -0.026893
v -3.464627 5.613480 -4.235822
v 5.477446 8.036663 0.163170
v 5.165519 5.613739 4.393659
v -3.464495 5.613739 4.393659
v 5.165519 5.613739 -4.236354
v -3.160240 8.577510 -0.027510
v -3.464287 6.058762 -4.228207
v 5.479835 8.485963 0.162553
v 5.167907 6.063039 4.393042
v -3.462106 6.063039 4.393042
v 5.167907 6.063039 -4.236972
v -3.477981 5.587093 -4.251477
v 5.141057 5.587093 -4.251477
v 5.142798 5.617973 4.389090
v -3.476241 5.617973 4.389090
v -3.477155 6.032763 -4.245827
v 5.143443 6.035821 -4.252094
v 5.145183 6.066701 4.388474
v -3.473855 6.066701 4.388474
v -1.069932 5.626062 -0.488623
v -3.053161 5.566195 2.635541
v -1.053161 3.566195 0.635541
v -1.053161 5.566195 0.635541
v -1.053161 3.566195 2.635541
v -1.069932 3.626062 -0.488623
v -1.069932 5.626062 -2.488622
v -1.069932 3.626062 -2.488622
v -2.769794 1.585932 0.639876
v -1.053161 5.566195 2.635541
v -3.069932 5.626062 -0.488623
v -3.056130 3.626062 -0.488719
v -3.069932 5.626062 -2.488622
v -3.069932 3.626062 -2.488622
v -3.053161 3.566195 2.635541
v -3.053161 5.566195 0.635541
v -3.032278 3.566195 0.635396
v -1.069932 5.626062 -1.475553
v -3.069932 5.626062 -1.475553
v -1.069932 3.626062 -1.475553
v -3.061540 3.626062 -1.475611
v -1.069932 4.626381 -0.488623
v -3.069932 4.626381 -2.488622
v -1.069932 4.626380 -2.488622
v -3.069932 4.626381 -0.488623
v -3.069932 4.626381 -1.475553
v -1.069932 4.626381 -1.475553
v -1.053161 5.566195 1.618893
v -3.053161 5.566195 1.618893
v -1.053161 3.566195 1.618893
v -3.041749 3.566195 1.618814
v -1.053161 4.566195 2.635541
v -3.053161 4.566195 0.635541
v -1.053161 4.566195 0.635541
v -3.053161 4.566195 2.635541
v -3.053161 4.566195 1.618893
v -1.053161 4.566195 1.618893
v -2.769794 1.811591 0.639876
v -2.800272 0.253774 -0.841056
v -2.915637 3.010324 -0.937881
v -2.799489 0.216124 1.124458
v -2.915637 3.010324 1.062119
v -2.769794 1.585932 0.865534
v -2.769794 1.811591 0.865534
v -2.995453 1.585932 0.639876
v -2.995453 1.811591 0.639876
v -2.995453 1.585932 0.865534
v -2.995453 1.811591 0.865534
v 2.130991 3.113031 -0.911271
v 2.130991 5.113030 -0.911271
v 2.130991 3.113031 1.088729
v 2.130991 5.113030 1.088729
v 0.130991 3.113031 -0.911271
v 0.130991 5.113030 -0.911271
v 0.130991 3.113031 1.088729
v 0.130991 5.113030 1.088729
vn -0.9982 0.0227 -0.0553
vn -0.0000 -0.0056 -1.0000
vn 0.9988 0.0498 -0.0000
vn -0.0061 -1.0000 -0.0000
vn -0.9985 -0.0540 0.0017
vn -0.0000 0.0056 1.0000
vn -0.9988 -0.0499 -0.0016
vn 0.9928 -0.0022 0.1200
vn -0.0115 0.8482 -0.5295
vn -0.0000 0.8692 0.4944
vn 0.7284 -0.0029 0.6851
vn 0.7441 -0.0049 -0.6680
vn 0.9982 -0.0227 0.0553
vn 0.9985 -0.0052 0.0552
vn -0.8979 0.0054 0.4403
vn 0.8979 -0.0054 -0.4402
vn -0.9743 0.2174 -0.0580
vn 0.9749 -0.2160 0.0543
vn -0.9682 0.2394 -0.0727
vn -0.9985 0.0052 -0.0553
vn 0.9731 -0.2238 0.0542
vn -0.9756 0.2140 -0.0487
vn 0.9980 -0.0320 0.0553
vn -0.9980 0.0320 -0.0553
vn -0.4108 0.8039 0.4301
vn 0.7502 -0.0031 0.6613
vn 0.3216 0.7909 -0.5205
vn -0.7585 0.0049 0.6517
vn 0.2093 -0.8627 0.4603
vn -0.6529 0.0024 -0.7574
vn 0.9825 -0.1833 -0.0325
vn -0.9827 0.1818 0.0363
vn 0.9749 -0.2161 0.0543
vn 0.9847 -0.1715 0.0296
vn 0.9756 -0.2140 0.0487
vn -0.9749 0.2160 -0.0543
vn -0.9825 0.1833 0.0325
vn 0.8444 0.0124 -0.5355
vn 0.9827 -0.1818 -0.0363
vn -0.9703 0.2283 -0.0800
vn 0.9977 -0.0054 -0.0678
vn -0.9974 -0.0005 0.0718
vn -0.9979 0.0052 -0.0652
vn 0.9975 -0.0052 0.0706
vn 0.9764 -0.2090 0.0544
vn -0.9731 0.2238 -0.0542
vn -0.2860 0.8478 -0.4466
vn -0.1718 0.9750 0.1411
vn 0.4445 0.7653 0.4656
vn -0.3945 -0.7761 0.4920
vn -0.4499 -0.8928 -0.0233
vn 0.3421 -0.8261 -0.4479
vn 0.1154 0.9933 0.0046
vn 0.7216 0.0236 -0.6919
vn -0.3732 -0.7952 -0.4778
vn 0.3886 -0.9211 0.0231
vn -0.0000 0.0014 1.0000
vn -0.0007 -0.0014 -1.0000
vn -0.0000 -0.9552 0.2960
vn -0.7061 0.0028 -0.7081
vn -0.0069 0.9971 -0.0756
vn -0.7660 -0.0067 0.6428
vn -0.0000 0.9924 0.1230
vn -0.0000 -0.9761 -0.2175
vn 1.0000 -0.0000 -0.0000
vn -1.0000 -0.0000 -0.0000
vn -0.0000 -0.0000 1.0000
vn -0.0000 -0.0000 -1.0000
vn -0.0000 -1.0000 -0.0000
vn -0.0000 1.0000 -0.0000
vn -0.9999 -0.0084 0.0055
vn -1.0000 -0.0000 0.0083
vn -0.9999 -0.0114 -0.0112
vn 0.0001 -0.0000 -1.0000
vn -0.9997 -0.0209 -0.0096
vn -0.9991 -0.0415 -0.0004
vn -0.0109 0.0093 -0.9999
vn 0.9974 -0.0017 0.0726
vn -0.0000 -0.9999 0.0124
vn -0.9969 0.0001 0.0786
vn -0.9976 -0.0015 -0.0690
vn -0.0000 -0.9999 -0.0121
vn 0.9975 -0.0002 -0.0706
vn 0.9939 -0.0005 0.1100
vn 0.0199 0.8752 -0.4834
vn -0.0017 0.8678 0.4969
vn 0.9985 -0.0052 0.0553
vn -0.8979 0.0054 0.4402
vn 0.8979 -0.0054 -0.4403
vn -0.9729 0.2228 -0.0615
vn -0.9759 0.2113 -0.0544
vn 0.9731 -0.2238 0.0543
vn -0.9756 0.2140 -0.0486
vn -0.9985 0.0052 -0.0552
vn 0.4853 0.7326 -0.4773
vn 0.9742 -0.2177 0.0588
vn -0.9749 0.2161 -0.0543
vn -0.9825 0.1833 0.0326
vn 0.9796 0.0089 -0.2007
vn -0.9705 0.2275 -0.0803
vn -0.9976 0.0054 0.0690
vn 0.9691 -0.2361 0.0715
vn -0.9731 0.2238 -0.0543
vn -0.1364 0.9855 0.1012
vn -0.2491 -0.8159 0.5218
vn 0.7161 0.0114 -0.6979
vn -0.0000 0.0127 -0.9999
vn 0.0069 -0.9860 0.1664
vn -0.0005 0.9794 -0.2020
vn -0.7702 -0.0188 0.6376
vn -0.9999 -0.0138 -0.0000
vn -0.0000 -0.0001 1.0000
vn -1.0000 -0.0084 -0.0000
vn -0.0000 0.0001 -1.0000
vn -0.9999 -0.0114 -0.0000
vn -0.9991 -0.0418 -0.0000
vt 0.044193 0.560010
vt 0.043418 0.367058
vt 0.044193 0.365700
vt 0.589587 0.329791
vt 0.359078 0.011026
vt 0.591292 0.000643
vt 0.718065 0.673901
vt 0.553303 0.906343
vt 0.552006 0.673901
vt 0.721288 0.342534
vt 0.884281 0.671513
vt 0.721187 0.671519
vt 0.884179 0.673297
vt 0.725602 0.903547
vt 0.721187 0.672805
vt 0.357792 0.012229
vt 0.125636 0.329795
vt 0.125636 0.000643
vt 0.719901 0.574800
vt 0.552006 0.346554
vt 0.718138 0.342361
vt 0.758750 0.000643
vt 0.592578 0.329628
vt 0.592691 0.000643
vt 0.927285 0.233051
vt 0.760048 0.002649
vt 0.923129 0.000643
vt 0.086040 0.599488
vt 0.088433 0.582881
vt 0.088433 0.599826
vt 0.366041 0.671921
vt 0.550720 0.352921
vt 0.550720 0.683109
vt 0.311812 0.671721
vt 0.125636 0.349454
vt 0.319827 0.342667
vt 0.298793 0.763984
vt 0.315752 0.742427
vt 0.315752 0.766446
vt 0.547541 0.767745
vt 0.530473 0.744701
vt 0.549336 0.743009
vt 0.020607 0.367124
vt 0.019833 0.560076
vt 0.019833 0.365766
vt 0.089719 0.582601
vt 0.091283 0.599738
vt 0.089719 0.599738
vt 0.012562 0.582542
vt 0.012355 0.599209
vt 0.012355 0.582072
vt 0.013848 0.582542
vt 0.014055 0.599208
vt 0.013848 0.599678
vt 0.041798 0.575975
vt 0.042105 0.760581
vt 0.041798 0.760993
vt 0.357759 0.561803
vt 0.357278 0.563186
vt 0.357278 0.561623
vt 0.332063 0.570121
vt 0.330530 0.754070
vt 0.330530 0.568361
vt 0.018547 0.582072
vt 0.016983 0.599209
vt 0.016983 0.582072
vt 0.321113 0.569722
vt 0.321883 0.760291
vt 0.321113 0.761652
vt 0.323170 0.568755
vt 0.323499 0.760295
vt 0.323170 0.760689
vt 0.094132 0.582601
vt 0.092569 0.599738
vt 0.092569 0.582601
vt 0.123864 0.561842
vt 0.123657 0.578509
vt 0.123657 0.561372
vt 0.329243 0.569717
vt 0.328465 0.754686
vt 0.328465 0.568361
vt 0.327179 0.754686
vt 0.326401 0.569717
vt 0.327179 0.568361
vt 0.064190 0.768351
vt 0.043946 0.579482
vt 0.064190 0.582029
vt 0.547559 0.711479
vt 0.530473 0.685846
vt 0.549380 0.684395
vt 0.084118 0.769692
vt 0.065815 0.579476
vt 0.083735 0.584690
vt 0.314103 0.711653
vt 0.297009 0.737084
vt 0.297009 0.710447
vt 0.045590 0.379595
vt 0.064190 0.578196
vt 0.045590 0.571528
vt 0.532293 0.771928
vt 0.549376 0.793498
vt 0.530473 0.795009
vt 0.335143 0.568439
vt 0.335650 0.754683
vt 0.335143 0.754761
vt 0.124165 0.365776
vt 0.123657 0.560010
vt 0.123657 0.365700
vt 0.043899 0.562836
vt 0.043418 0.564219
vt 0.043418 0.562655
vt 0.337245 0.568845
vt 0.336936 0.753485
vt 0.337061 0.568361
vt 0.324785 0.760291
vt 0.325114 0.568755
vt 0.325114 0.760685
vt 0.043418 0.565867
vt 0.043899 0.567249
vt 0.043418 0.567430
vt 0.333857 0.568439
vt 0.333349 0.754686
vt 0.333349 0.568361
vt 0.015342 0.582487
vt 0.015652 0.598948
vt 0.015471 0.599432
vt 0.020099 0.562797
vt 0.020607 0.757027
vt 0.020099 0.757103
vt 0.357789 0.560263
vt 0.357278 0.557911
vt 0.357792 0.557847
vt 0.338876 0.555056
vt 0.355506 0.351781
vt 0.355506 0.564170
vt 0.039403 0.573023
vt 0.023424 0.375597
vt 0.039403 0.365700
vt 0.337590 0.352055
vt 0.321113 0.557687
vt 0.321113 0.342667
vt 0.102490 0.571881
vt 0.086040 0.375134
vt 0.102490 0.365700
vt 0.040689 0.367500
vt 0.042132 0.572818
vt 0.041227 0.574293
vt 0.356940 0.555055
vt 0.357792 0.344173
vt 0.357792 0.556561
vt 0.084732 0.378566
vt 0.065815 0.578190
vt 0.065815 0.365800
vt 0.002536 0.583589
vt 0.000643 0.606766
vt 0.000643 0.582072
vt 0.122371 0.385200
vt 0.103777 0.580720
vt 0.103777 0.365700
vt 0.356380 0.582850
vt 0.338876 0.772780
vt 0.338876 0.565456
vt 0.009365 0.600734
vt 0.011069 0.582376
vt 0.010905 0.601009
vt 0.123468 0.600227
vt 0.103777 0.788187
vt 0.103777 0.582006
vt 0.005072 0.605008
vt 0.003822 0.583269
vt 0.005072 0.582072
vt 0.022024 0.782991
vt 0.038884 0.759038
vt 0.038884 0.783704
vt 0.018547 0.560381
vt 0.000643 0.365766
vt 0.018547 0.366071
vt 0.008079 0.602493
vt 0.006358 0.582251
vt 0.008079 0.582072
vt 0.065815 0.000744
vt 0.084754 0.364414
vt 0.065815 0.364514
vt 0.064529 0.000751
vt 0.045590 0.364480
vt 0.045590 0.000643
vt 0.041224 0.016900
vt 0.023104 0.364414
vt 0.023104 0.000643
vt 0.547537 0.715652
vt 0.530473 0.739982
vt 0.530473 0.714077
vt 0.018306 0.348202
vt 0.000643 0.000643
vt 0.021818 0.018033
vt 0.313840 0.707783
vt 0.297009 0.681760
vt 0.315769 0.680374
vt 0.105993 0.018922
vt 0.124350 0.364414
vt 0.105993 0.348074
vt 0.104707 0.018931
vt 0.086040 0.364414
vt 0.086040 0.000643
vt 0.970225 0.303825
vt 0.928571 0.261633
vt 0.970225 0.261633
vt 0.122902 0.919365
vt 0.080710 0.962122
vt 0.080710 0.919365
vt 0.211312 0.936179
vt 0.253504 0.851768
vt 0.253504 0.936179
vt 0.254790 0.936179
vt 0.296982 0.851768
vt 0.296982 0.936179
vt 0.125638 0.801957
vt 0.168393 0.886014
vt 0.125636 0.886014
vt 0.123468 0.873884
vt 0.080710 0.789473
vt 0.123468 0.789473
vt 0.080710 0.918079
vt 0.122916 0.875170
vt 0.122916 0.918079
vt 0.970074 0.216855
vt 0.928571 0.174650
vt 0.970074 0.174650
vt 0.885567 0.598166
vt 0.927772 0.513755
vt 0.927772 0.598166
vt 0.927671 0.844200
vt 0.885465 0.928611
vt 0.885465 0.844200
vt 0.529253 0.855789
vt 0.487748 0.939320
vt 0.487750 0.855791
vt 0.402019 0.855789
vt 0.443521 0.940200
vt 0.402019 0.940200
vt 0.400732 0.940200
vt 0.359079 0.855789
vt 0.400732 0.855789
vt 0.444809 0.856019
vt 0.486461 0.939846
vt 0.444808 0.939847
vt 0.970611 0.886392
vt 0.928957 0.844200
vt 0.970611 0.844200
vt 0.021282 0.959598
vt 0.063474 0.916841
vt 0.063474 0.959598
vt 0.355688 0.903963
vt 0.313469 0.946720
vt 0.313469 0.903963
vt 0.970224 0.000643
vt 0.928572 0.042864
vt 0.928571 0.000643
vt 0.885465 0.757216
vt 0.927684 0.672805
vt 0.927684 0.757216
vt 0.927684 0.758502
vt 0.885465 0.842331
vt 0.885465 0.758502
vt 0.167856 0.930056
vt 0.125637 0.887300
vt 0.167856 0.887300
vt 0.970225 0.086371
vt 0.928571 0.044152
vt 0.970225 0.044152
vt 0.064190 0.871360
vt 0.021282 0.786950
vt 0.064190 0.786950
vt 0.356380 0.774066
vt 0.313469 0.857995
vt 0.313472 0.774066
vt 0.927772 0.599452
vt 0.885567 0.642361
vt 0.885567 0.599452
vt 0.928571 0.131158
vt 0.970074 0.173364
vt 0.928571 0.173364
vt 0.970074 0.260347
vt 0.928571 0.218142
vt 0.970074 0.218142
vt 0.313472 0.859763
vt 0.355677 0.902671
vt 0.313469 0.902677
vt 0.885567 0.343242
vt 0.927772 0.426772
vt 0.885567 0.426772
vt 0.885567 0.512469
vt 0.927772 0.428058
vt 0.927772 0.512469
vt 0.970079 0.087664
vt 0.928579 0.129872
vt 0.928571 0.087657
vt 0.021282 0.915555
vt 0.063487 0.872647
vt 0.063487 0.915555
vt 0.210026 0.798436
vt 0.127126 0.683811
vt 0.210026 0.680374
vt 0.006358 0.613464
vt 0.015882 0.603940
vt 0.015882 0.613464
vt 0.023104 0.604336
vt 0.032628 0.594811
vt 0.032628 0.604336
vt 0.612912 0.331081
vt 0.603388 0.340605
vt 0.603388 0.331081
vt 0.032628 0.584001
vt 0.023104 0.593525
vt 0.023104 0.584001
vt 0.089719 0.601024
vt 0.099243 0.610548
vt 0.089719 0.610548
vt 0.602102 0.340605
vt 0.592578 0.331081
vt 0.602102 0.331081
vt 0.359078 0.770092
vt 0.443489 0.854503
vt 0.359078 0.854503
vt 0.529187 0.684395
vt 0.444776 0.768806
vt 0.444776 0.684395
vt 0.295723 0.766071
vt 0.211312 0.850482
vt 0.211312 0.766071
vt 0.529187 0.770092
vt 0.444776 0.854503
vt 0.444776 0.770092
vt 0.295723 0.764785
vt 0.211312 0.680374
vt 0.295723 0.680374
vt 0.443489 0.684395
vt 0.359079 0.768806
vt 0.359078 0.684395
vt 0.043418 0.561369
vt 0.359078 0.341075
vt 0.715255 0.998471
vt 0.884281 0.342361
vt 0.884179 0.999357
vt 0.357792 0.341381
vt 0.552006 0.672615
vt 0.758762 0.329795
vt 0.760048 0.327232
vt 0.086115 0.582601
vt 0.359079 0.342361
vt 0.125636 0.679088
vt 0.297009 0.739706
vt 0.530473 0.769276
vt 0.020607 0.561434
vt 0.091283 0.582601
vt 0.012562 0.599679
vt 0.014055 0.582072
vt 0.042132 0.575579
vt 0.357759 0.563367
vt 0.331365 0.755392
vt 0.018547 0.599209
vt 0.321883 0.568361
vt 0.323499 0.568361
vt 0.094132 0.599738
vt 0.123864 0.578979
vt 0.329243 0.756042
vt 0.326401 0.756042
vt 0.043946 0.785663
vt 0.530473 0.712791
vt 0.065815 0.786269
vt 0.315925 0.738419
vt 0.064190 0.365807
vt 0.549376 0.770563
vt 0.335650 0.568361
vt 0.124165 0.560086
vt 0.043899 0.564400
vt 0.337245 0.753893
vt 0.324785 0.568361
vt 0.043899 0.565686
vt 0.333856 0.754765
vt 0.015652 0.582072
vt 0.020607 0.562720
vt 0.357278 0.560336
vt 0.338876 0.342667
vt 0.023104 0.582715
vt 0.337590 0.567075
vt 0.086040 0.581315
vt 0.042132 0.365700
vt 0.356940 0.342667
vt 0.084732 0.570498
vt 0.002406 0.608255
vt 0.122371 0.579510
vt 0.356296 0.768636
vt 0.009365 0.582072
vt 0.123468 0.786550
vt 0.003942 0.606089
vt 0.020099 0.758389
vt 0.000643 0.580786
vt 0.006524 0.602654
vt 0.084754 0.000643
vt 0.064402 0.364521
vt 0.044304 0.346934
vt 0.549332 0.741722
vt 0.000643 0.364479
vt 0.297009 0.709160
vt 0.124349 0.000643
vt 0.104707 0.348083
vt 0.928571 0.303825
vt 0.122902 0.962122
vt 0.211312 0.851768
vt 0.254790 0.851768
vt 0.168393 0.801603
vt 0.080711 0.873884
vt 0.080710 0.875170
vt 0.928571 0.216855
vt 0.885567 0.513755
vt 0.927671 0.928611
vt 0.529253 0.939718
vt 0.443521 0.855789
vt 0.359079 0.940200
vt 0.486461 0.855789
vt 0.928957 0.886392
vt 0.021282 0.916841
vt 0.355688 0.946720
vt 0.970226 0.042866
vt 0.885465 0.672805
vt 0.927684 0.842913
vt 0.125636 0.930057
vt 0.928571 0.086371
vt 0.021282 0.871360
vt 0.356380 0.858477
vt 0.927772 0.642360
vt 0.970074 0.131158
vt 0.928571 0.260347
vt 0.355677 0.859763
vt 0.927772 0.342361
vt 0.885567 0.428058
vt 0.970082 0.129872
vt 0.021282 0.872647
vt 0.125636 0.800317
vt 0.006358 0.603940
vt 0.023104 0.594811
vt 0.612912 0.340605
vt 0.032628 0.593525
vt 0.099243 0.601024
vt 0.592578 0.340605
vt 0.443489 0.770092
vt 0.529187 0.768806
vt 0.295723 0.850482
vt 0.529187 0.854503
vt 0.211312 0.764785
vt 0.443489 0.768806
s 0
usemtl Material
f 17/1/1 29/2/1 13/3/1
f 4/4/2 7/5/2 8/6/2
f 9/7/3 5/8/3 6/9/3
f 12/10/4 8/11/4 9/12/4
f 12/13/5 3/14/5 4/15/5
f 5/16/6 2/17/6 6/18/6
f 1/19/7 12/20/7 2/21/7
f 6/22/4 12/23/4 9/24/4
f 7/25/3 9/26/3 8/27/3
f 14/28/8 20/29/8 26/30/8
f 17/31/9 16/32/9 14/33/9
f 15/34/10 17/35/10 13/36/10
f 7/37/11 68/38/11 16/39/11
f 5/40/12 69/41/12 65/42/12
f 10/43/13 23/44/13 19/45/13
f 5/46/14 28/47/14 15/48/14
f 23/49/15 45/50/15 39/51/15
f 22/52/16 44/53/16 28/54/16
f 14/55/17 31/56/17 17/57/17
f 25/58/18 31/59/18 41/60/18
f 3/61/19 19/62/19 20/63/19
f 1/64/20 29/65/20 23/66/20
f 7/67/21 21/68/21 11/69/21
f 24/70/22 37/71/22 21/72/22
f 7/73/20 30/74/20 24/75/20
f 24/76/15 46/77/15 40/78/15
f 18/79/23 28/80/23 27/81/23
f 11/82/24 22/83/24 5/84/24
f 44/85/25 59/86/25 43/87/25
f 39/88/26 61/89/26 55/90/26
f 32/91/27 47/92/27 31/93/27
f 38/94/28 60/95/28 44/96/28
f 40/97/29 53/98/29 37/99/29
f 40/100/30 62/101/30 56/102/30
f 28/103/31 43/104/31 27/105/31
f 29/106/32 41/107/32 45/108/32
f 30/109/33 33/110/33 46/111/33
f 20/112/34 35/113/34 36/114/34
f 16/115/35 34/116/35 33/117/35
f 27/118/36 34/119/36 18/120/36
f 22/121/37 37/122/37 38/123/37
f 20/124/38 42/125/38 26/126/38
f 23/127/39 35/128/39 19/129/39
f 26/130/40 32/131/40 14/132/40
f 53/133/41 62/134/41 59/135/41
f 51/136/42 58/137/42 52/138/42
f 51/139/43 61/140/43 57/141/43
f 53/142/44 60/143/44 54/144/44
f 48/145/45 57/146/45 47/147/45
f 49/148/46 59/149/46 62/150/46
f 33/151/47 50/152/47 49/153/47
f 42/154/48 48/155/48 32/156/48
f 45/157/49 57/158/49 61/159/49
f 36/160/50 51/161/50 52/162/50
f 31/163/51 57/164/51 41/165/51
f 38/166/52 53/167/52 54/168/52
f 46/169/53 49/170/53 62/171/53
f 36/172/54 58/173/54 42/174/54
f 39/175/55 51/176/55 35/177/55
f 34/178/56 59/179/56 50/180/56
f 65/181/57 70/182/57 66/183/57
f 64/184/58 67/185/58 68/186/58
f 7/187/59 63/188/59 64/189/59
f 1/190/60 70/191/60 13/192/60
f 16/193/61 67/194/61 14/195/61
f 3/196/62 67/197/62 63/198/62
f 13/199/63 69/200/63 15/201/63
f 1/202/64 65/203/64 66/204/64
f 88/205/65 92/206/65 97/207/65
f 89/208/66 93/209/66 96/210/66
f 71/211/67 95/212/67 92/213/67
f 83/214/68 94/215/68 93/216/68
f 91/217/69 78/218/69 90/219/69
f 88/220/70 83/221/70 89/222/70
f 98/223/65 102/224/65 107/225/65
f 99/226/66 103/227/66 106/228/66
f 80/229/67 105/230/67 102/231/67
f 86/232/68 104/233/68 103/234/68
f 100/235/69 87/236/69 73/237/69
f 98/238/70 86/239/70 99/240/70
f 71/241/70 89/242/70 81/243/70
f 82/244/69 90/245/69 76/246/69
f 81/247/66 96/248/66 95/249/66
f 77/250/65 97/251/65 94/252/65
f 94/253/65 90/254/65 78/255/65
f 82/256/71 96/257/71 91/258/71
f 93/259/68 78/260/68 84/261/68
f 92/262/67 82/263/67 76/264/67
f 91/265/72 93/266/72 84/267/72
f 97/268/65 76/269/65 90/270/65
f 80/271/70 99/272/70 72/273/70
f 75/274/69 101/275/69 100/276/69
f 72/277/66 106/278/66 105/279/66
f 74/280/65 107/281/65 104/282/65
f 104/283/65 100/284/65 73/285/65
f 85/286/73 106/287/73 101/288/73
f 87/289/74 104/290/74 73/291/74
f 102/292/67 85/293/67 75/294/67
f 101/295/75 103/296/75 87/297/75
f 107/298/65 75/299/65 100/300/65
f 112/301/76 109/302/76 111/303/76
f 108/304/65 113/305/65 79/306/65
f 114/307/67 117/308/67 113/309/67
f 118/310/66 115/311/66 117/312/66
f 116/313/68 79/314/68 115/315/68
f 117/316/69 79/317/69 113/318/69
f 114/319/70 116/320/70 118/321/70
f 120/322/65 121/323/65 119/324/65
f 122/325/67 125/326/67 121/327/67
f 126/328/66 123/329/66 125/330/66
f 124/331/68 119/332/68 123/333/68
f 125/334/69 119/335/69 121/336/69
f 122/337/70 124/338/70 126/339/70
f 17/1/1 25/340/1 29/2/1
f 4/4/77 3/341/77 7/5/77
f 9/7/78 11/342/78 5/8/78
f 12/10/79 4/343/79 8/11/79
f 12/13/80 10/344/80 3/14/80
f 5/16/6 1/345/6 2/17/6
f 1/19/81 10/346/81 12/20/81
f 6/22/82 2/347/82 12/23/82
f 7/25/83 11/348/83 9/26/83
f 14/28/84 3/349/84 20/29/84
f 17/31/85 18/350/85 16/32/85
f 15/34/86 18/351/86 17/35/86
f 7/37/11 64/352/11 68/38/11
f 5/40/12 15/353/12 69/41/12
f 10/43/13 1/354/13 23/44/13
f 5/46/87 22/355/87 28/47/87
f 23/49/88 29/356/88 45/50/88
f 22/52/89 38/357/89 44/53/89
f 14/55/90 32/358/90 31/56/90
f 25/58/33 17/359/33 31/59/33
f 3/61/91 10/360/91 19/62/91
f 1/64/20 13/361/20 29/65/20
f 7/67/92 24/362/92 21/68/92
f 24/70/93 40/363/93 37/71/93
f 7/73/94 16/364/94 30/74/94
f 24/76/88 30/365/88 46/77/88
f 18/79/23 15/366/23 28/80/23
f 11/82/24 21/367/24 22/83/24
f 44/85/25 60/368/25 59/86/25
f 39/88/26 45/369/26 61/89/26
f 32/91/95 48/370/95 47/92/95
f 38/94/28 54/371/28 60/95/28
f 40/97/29 56/372/29 53/98/29
f 40/100/30 46/373/30 62/101/30
f 28/103/31 44/374/31 43/104/31
f 29/106/32 25/375/32 41/107/32
f 30/109/18 16/376/18 33/110/18
f 20/112/96 19/377/96 35/113/96
f 16/115/35 18/378/35 34/116/35
f 27/118/97 43/379/97 34/119/97
f 22/121/98 21/380/98 37/122/98
f 20/124/99 36/381/99 42/125/99
f 23/127/39 39/382/39 35/128/39
f 26/130/100 42/383/100 32/131/100
f 53/133/41 56/384/41 62/134/41
f 51/136/101 57/385/101 58/137/101
f 51/139/43 55/386/43 61/140/43
f 53/142/44 59/387/44 60/143/44
f 48/145/102 58/388/102 57/146/102
f 49/148/103 50/389/103 59/149/103
f 33/151/47 34/390/47 50/152/47
f 42/154/104 58/391/104 48/155/104
f 45/157/49 41/392/49 57/158/49
f 36/160/105 35/393/105 51/161/105
f 31/163/51 47/394/51 57/164/51
f 38/166/52 37/395/52 53/167/52
f 46/169/53 33/396/53 49/170/53
f 36/172/106 52/397/106 58/173/106
f 39/175/55 55/398/55 51/176/55
f 34/178/56 43/399/56 59/179/56
f 65/181/57 69/400/57 70/182/57
f 64/184/107 63/401/107 67/185/107
f 7/187/108 3/402/108 63/188/108
f 1/190/60 66/403/60 70/191/60
f 16/193/109 68/404/109 67/194/109
f 3/196/110 14/405/110 67/197/110
f 13/199/63 70/406/63 69/200/63
f 1/202/64 5/407/64 65/203/64
f 88/205/65 71/408/65 92/206/65
f 89/208/66 83/409/66 93/209/66
f 71/211/67 81/410/67 95/212/67
f 83/214/68 77/411/68 94/215/68
f 91/217/69 84/412/69 78/218/69
f 88/220/70 77/413/70 83/221/70
f 98/223/65 80/414/65 102/224/65
f 99/226/66 86/415/66 103/227/66
f 80/229/67 72/416/67 105/230/67
f 86/232/68 74/417/68 104/233/68
f 100/235/69 101/418/69 87/236/69
f 98/238/70 74/419/70 86/239/70
f 71/241/70 88/420/70 89/242/70
f 82/244/69 91/421/69 90/245/69
f 81/247/66 89/422/66 96/248/66
f 77/250/65 88/423/65 97/251/65
f 94/253/65 97/424/65 90/254/65
f 82/256/111 95/425/111 96/257/111
f 93/259/68 94/426/68 78/260/68
f 92/262/112 95/427/112 82/263/112
f 91/265/113 96/428/113 93/266/113
f 97/268/65 92/429/65 76/269/65
f 80/271/70 98/430/70 99/272/70
f 75/274/69 85/431/69 101/275/69
f 72/277/66 99/432/66 106/278/66
f 74/280/65 98/433/65 107/281/65
f 104/283/65 107/434/65 100/284/65
f 85/286/66 105/435/66 106/287/66
f 87/289/114 103/436/114 104/290/114
f 102/292/67 105/437/67 85/293/67
f 101/295/115 106/438/115 103/296/115
f 107/298/65 102/439/65 75/299/65
f 112/301/116 110/440/116 109/302/116
f 108/304/65 114/441/65 113/305/65
f 114/307/67 118/442/67 117/308/67
f 118/310/66 116/443/66 115/311/66
f 116/313/68 108/444/68 79/314/68
f 117/316/69 115/445/69 79/317/69
f 114/319/70 108/446/70 116/320/70
f 120/322/65 122/447/65 121/323/65
f 122/325/67 126/448/67 125/326/67
f 126/328/66 124/449/66 123/329/66
f 124/331/68 120/450/68 119/332/68
f 125/334/69 123/451/69 119/335/69
f 122/337/70 120/452/70 124/338/70
