# Blender 4.4.0
# www.blender.org
mtllib torch.mtl
o Cube
v -0.117463 0.286286 0.121251
v -0.117463 0.030094 0.121251
v -0.117463 0.286286 -0.134941
v -0.117463 0.030094 -0.134941
v 0.138729 0.286286 0.121251
v 0.138729 0.030094 0.121251
v 0.138729 0.286286 -0.134941
v 0.138729 0.030094 -0.134941
v -0.117463 0.589460 -0.134941
v 0.138729 0.589460 -0.134941
v -0.117463 0.589460 0.121251
v 0.138729 0.589460 0.121251
v -0.133935 0.708039 -0.165941
v 0.181040 0.708039 -0.165941
v -0.133935 0.708039 0.149034
v 0.181040 0.708039 0.149034
v 0.181040 0.609545 0.236898
v -0.133935 0.609545 0.236898
v 0.181040 0.708039 0.236898
v -0.133935 0.708039 0.236898
v 0.258876 0.609545 -0.165941
v 0.258876 0.609545 0.149034
v 0.258876 0.708039 -0.165941
v 0.258876 0.708039 0.149034
v -0.133935 0.609545 -0.239845
v 0.181040 0.609545 -0.239845
v -0.133935 0.708039 -0.239845
v 0.181040 0.708039 -0.239845
v -0.205521 0.609545 0.149034
v -0.205521 0.609545 -0.165941
v -0.205521 0.708039 0.149034
v -0.205521 0.708039 -0.165941
v -0.133935 0.778534 -0.165941
v 0.181040 0.778534 -0.165941
v -0.133935 0.778534 0.149034
v 0.181040 0.778534 0.149034
v 0.181040 0.708039 0.192989
v -0.133935 0.708039 0.192989
v 0.181040 0.778534 0.192989
v -0.133935 0.778534 0.192989
v 0.219970 0.708039 -0.165941
v 0.219970 0.708039 0.149034
v 0.219970 0.778534 -0.165941
v 0.219970 0.778534 0.149034
v -0.133935 0.708039 -0.200793
v 0.181040 0.708039 -0.200793
v -0.133935 0.778534 -0.200793
v 0.181040 0.778534 -0.200793
v -0.166079 0.708039 0.149034
v -0.166079 0.708039 -0.165941
v -0.166079 0.778534 0.149034
v -0.166079 0.778534 -0.165941
v -0.133935 0.778534 -0.165941
v 0.181040 0.778534 -0.165941
v -0.133935 0.778534 0.149034
v 0.181040 0.778534 0.149034
v -0.133935 0.778534 -0.010985
v 0.181040 0.778534 -0.010985
v 0.023553 0.778534 -0.165941
v 0.023553 0.778534 0.149034
v 0.023553 0.778534 -0.010985
v 0.181040 0.909284 -0.010985
v 0.161429 0.988824 0.125603
v 0.023553 0.909284 0.149034
v 0.023553 0.909284 -0.010985
v 0.023553 0.908220 0.149034
v -0.131224 0.993166 0.140851
v -0.133935 0.908220 -0.010985
v 0.023553 0.908220 -0.010985
v 0.023553 0.904884 -0.165941
v 0.177199 0.993356 -0.149197
v 0.181040 0.904884 -0.010985
v 0.021820 0.908215 -0.008824
v -0.133935 0.907656 -0.010985
v -0.127823 0.991838 -0.151054
v 0.023553 0.907656 -0.010985
v 0.023553 0.907656 -0.165941
vn -0.0000 -0.0000 -1.0000
vn 1.0000 -0.0000 -0.0000
vn -0.0000 -1.0000 -0.0000
vn -1.0000 -0.0000 -0.0000
vn -0.0000 -0.0000 1.0000
vn -0.0000 -0.9853 0.1711
vn 0.2567 -0.1865 0.9483
vn -0.0000 1.0000 -0.0000
vn 0.9205 -0.2601 -0.2916
vn -0.2189 -0.1730 -0.9603
vn 0.1649 -0.9863 -0.0000
vn -0.0000 -0.9822 -0.1880
vn -0.9856 -0.1015 0.1353
vn -0.2224 -0.9750 -0.0000
vn 0.9913 0.1017 0.0831
vn 0.0631 0.0787 -0.9949
vn -0.4997 0.8662 -0.0000
vn 0.4494 0.7762 -0.4423
vn -0.0317 0.0385 0.9988
vn 0.0206 0.9996 -0.0210
vn 0.0132 -0.0165 0.9998
vn 0.4636 0.7504 0.4712
vn -0.9992 0.0304 -0.0253
vn -0.9866 -0.1085 -0.1217
vn -0.1977 -0.1562 0.9677
vn 0.9150 -0.2421 0.3227
vn 0.2829 -0.2056 -0.9368
vn -0.0583 0.0712 -0.9958
vn -0.0000 0.8642 -0.5032
vn 0.0991 0.1193 0.9879
vn -0.9999 0.0130 0.0106
vn -0.4758 0.7347 0.4835
vn 0.9997 0.0191 -0.0156
vn -0.9999 -0.0132 -0.0107
vt 0.296882 0.294318
vt 0.261393 0.335076
vt 0.294832 0.296493
vt 0.294950 0.293414
vt 0.295133 0.293697
vt 0.295541 0.292388
vt 0.295399 0.293285
vt 0.294637 0.291764
vt 0.292191 0.294103
vt 0.247151 0.257897
vt 0.323317 0.218380
vt 0.337136 0.242874
vt 0.337762 0.332769
vt 0.160264 0.441767
vt 0.132465 0.180199
vt 0.156968 0.155856
vt 0.416403 0.152636
vt 0.361178 0.245491
vt 0.191356 0.336206
vt 0.343072 0.388317
vt 0.440862 0.413170
vt 0.257589 0.212627
vt 0.321875 0.194811
vt 0.253986 0.186136
vt 0.219048 0.329562
vt 0.199547 0.265280
vt 0.223541 0.265678
vt 0.334466 0.358320
vt 0.270801 0.388564
vt 0.270119 0.365971
vt 0.393753 0.318980
vt 0.368342 0.320526
vt 0.394025 0.237456
vt 0.591052 0.360455
vt 0.718260 0.259828
vt 0.721551 0.274930
vt 0.590848 0.555894
vt 0.420584 0.455289
vt 0.390398 0.127900
vt 0.553341 0.010718
vt 0.453261 0.169550
vt 0.184308 0.112308
vt 0.416623 0.069463
vt 0.000102 0.000102
vt 0.168005 0.051884
vt 0.116813 0.417139
vt 0.062913 0.145279
vt 0.000102 0.609079
vt 0.049208 0.440011
vt 0.143134 0.538477
vt 0.180647 0.462223
vt 0.448691 0.521971
vt 0.530420 0.433002
vt 0.458084 0.395332
vt 0.519672 0.139918
vt 0.623210 0.039075
vt 0.720311 0.118443
vt 0.714675 0.120243
vt 0.999898 0.000102
vt 0.880806 0.126495
vt 0.777419 0.053017
vt 0.814783 0.217618
vt 0.875507 0.307216
vt 0.806180 0.377318
vt 0.736095 0.267463
vt 0.730893 0.283834
vt 0.663226 0.180940
vt 0.893916 0.293441
vt 0.889938 0.304775
vt 0.999898 0.426554
vt 0.978841 0.203848
vt 0.878736 0.290067
vt 0.713486 0.125683
vt 0.720080 0.125231
vt 0.896978 0.142916
vt 0.892550 0.129048
vt 0.879486 0.142042
s 0
usemtl Material
f 3/1/1 10/2/1 7/3/1
f 3/1/1 8/4/1 4/5/1
f 7/3/2 6/6/2 8/4/2
f 2/7/3 8/4/3 6/6/3
f 1/8/4 4/5/4 2/7/4
f 5/9/5 2/7/5 6/6/5
f 12/10/6 18/11/6 11/12/6
f 7/3/2 12/10/2 5/9/2
f 1/8/4 9/13/4 3/1/4
f 5/9/5 11/12/5 1/8/5
f 14/14/3 42/15/3 16/16/3
f 15/17/7 29/18/7 11/12/7
f 16/16/8 23/19/8 14/14/8
f 14/14/8 27/20/8 13/21/8
f 17/22/5 20/23/5 18/11/5
f 16/16/9 17/22/9 12/10/9
f 15/17/4 18/11/4 20/23/4
f 15/17/8 19/24/8 16/16/8
f 21/25/2 24/26/2 22/27/2
f 14/14/10 21/25/10 10/2/10
f 10/2/11 22/27/11 12/10/11
f 16/16/5 22/27/5 24/26/5
f 25/28/1 28/29/1 26/30/1
f 14/14/2 26/30/2 28/29/2
f 10/2/12 25/28/12 26/30/12
f 13/21/13 25/28/13 9/13/13
f 29/18/4 32/31/4 30/32/4
f 13/21/8 31/33/8 15/17/8
f 13/21/1 30/32/1 32/31/1
f 9/13/14 29/18/14 30/32/14
f 56/34/15 62/35/15 63/36/15
f 33/37/4 45/38/4 13/21/4
f 16/16/3 38/39/3 15/17/3
f 35/40/5 49/41/5 15/17/5
f 37/42/5 40/43/5 38/39/5
f 15/17/4 40/43/4 35/40/4
f 36/44/2 37/42/2 16/16/2
f 35/40/8 39/45/8 36/44/8
f 41/46/2 44/47/2 42/15/2
f 34/48/1 41/46/1 14/14/1
f 36/44/8 43/49/8 34/48/8
f 16/16/5 44/47/5 36/44/5
f 45/38/1 48/50/1 46/51/1
f 13/21/3 46/51/3 14/14/3
f 14/14/2 48/50/2 34/48/2
f 34/48/8 47/52/8 33/37/8
f 49/41/4 52/53/4 50/54/4
f 15/17/3 50/54/3 13/21/3
f 33/37/8 51/55/8 35/40/8
f 13/21/1 52/53/1 33/37/1
f 54/56/16 70/57/16 71/58/16
f 53/59/1 77/60/1 59/61/1
f 61/62/2 66/63/2 60/64/2
f 63/36/17 65/65/17 64/66/17
f 60/64/4 65/65/4 61/62/4
f 61/62/1 62/35/1 58/67/1
f 56/34/5 64/66/5 60/64/5
f 66/63/18 68/68/18 67/69/18
f 55/70/19 66/63/19 67/69/19
f 57/71/1 69/72/1 61/62/1
f 55/70/4 68/68/4 57/71/4
f 72/73/20 70/57/20 73/74/20
f 61/62/21 72/73/21 73/74/21
f 54/56/2 72/73/2 58/67/2
f 61/62/4 70/57/4 59/61/4
f 74/75/22 77/60/22 75/76/22
f 53/59/23 74/75/23 75/76/23
f 59/61/2 76/77/2 61/62/2
f 61/62/5 74/75/5 57/71/5
f 3/1/1 9/13/1 10/2/1
f 3/1/1 7/3/1 8/4/1
f 7/3/2 5/9/2 6/6/2
f 2/7/3 4/5/3 8/4/3
f 1/8/4 3/1/4 4/5/4
f 5/9/5 1/8/5 2/7/5
f 12/10/6 17/22/6 18/11/6
f 7/3/2 10/2/2 12/10/2
f 1/8/4 11/12/4 9/13/4
f 5/9/5 12/10/5 11/12/5
f 14/14/3 41/46/3 42/15/3
f 15/17/5 31/33/5 29/18/5
f 16/16/8 24/26/8 23/19/8
f 14/14/8 28/29/8 27/20/8
f 17/22/5 19/24/5 20/23/5
f 16/16/2 19/24/2 17/22/2
f 15/17/24 11/12/24 18/11/24
f 15/17/8 20/23/8 19/24/8
f 21/25/2 23/19/2 24/26/2
f 14/14/1 23/19/1 21/25/1
f 10/2/11 21/25/11 22/27/11
f 16/16/25 12/10/25 22/27/25
f 25/28/1 27/20/1 28/29/1
f 14/14/26 10/2/26 26/30/26
f 10/2/12 9/13/12 25/28/12
f 13/21/4 27/20/4 25/28/4
f 29/18/4 31/33/4 32/31/4
f 13/21/8 32/31/8 31/33/8
f 13/21/27 9/13/27 30/32/27
f 9/13/14 11/12/14 29/18/14
f 56/34/2 58/67/2 62/35/2
f 33/37/4 47/52/4 45/38/4
f 16/16/3 37/42/3 38/39/3
f 35/40/5 51/55/5 49/41/5
f 37/42/5 39/45/5 40/43/5
f 15/17/4 38/39/4 40/43/4
f 36/44/2 39/45/2 37/42/2
f 35/40/8 40/43/8 39/45/8
f 41/46/2 43/49/2 44/47/2
f 34/48/1 43/49/1 41/46/1
f 36/44/8 44/47/8 43/49/8
f 16/16/5 42/15/5 44/47/5
f 45/38/1 47/52/1 48/50/1
f 13/21/3 45/38/3 46/51/3
f 14/14/2 46/51/2 48/50/2
f 34/48/8 48/50/8 47/52/8
f 49/41/4 51/55/4 52/53/4
f 15/17/3 49/41/3 50/54/3
f 33/37/8 52/53/8 51/55/8
f 13/21/1 50/54/1 52/53/1
f 54/56/1 59/61/1 70/57/1
f 53/59/28 75/76/28 77/60/28
f 61/62/2 69/72/2 66/63/2
f 63/36/29 62/35/29 65/65/29
f 60/64/4 64/66/4 65/65/4
f 61/62/1 65/65/1 62/35/1
f 56/34/30 63/36/30 64/66/30
f 66/63/8 69/72/8 68/68/8
f 55/70/5 60/64/5 66/63/5
f 57/71/1 68/68/1 69/72/1
f 55/70/31 67/69/31 68/68/31
f 72/73/32 71/58/32 70/57/32
f 61/62/5 58/67/5 72/73/5
f 54/56/33 71/58/33 72/73/33
f 61/62/34 73/74/34 70/57/34
f 74/75/8 76/77/8 77/60/8
f 53/59/4 57/71/4 74/75/4
f 59/61/2 77/60/2 76/77/2
f 61/62/5 76/77/5 74/75/5
